<svg xmlns="http://www.w3.org/2000/svg" viewBox="0 0 360 360" width="360" height="360"><circle cx="180" cy="180" r="173.7" fill="#056577"/><path fill="#dfebee" d="M103 236.6v-2.7c-36.3-10.5-19.7-59-17.4-71.1 1.6-8.5-7.7-2.1-11.7 4.2s-29.3 73.1 29 89.5c0-.4.1-.9.1-1.4zm188-20.5c.5 4.4-4.5 7.9-10.2 8.6s-9 4.7-12.4 8.6-8.3 4.2-11.6.5c-7.2-8.3-2.3-22.7 8.7-27.3 13.1-5.4 24.3.1 25.5 9.6zm-77.2 45.5c-3.2 6.1-10.3 3.4-19.2 3.7s-15.4 3.2-19.3-4.9c-4.7-9.9 9-21 20.8-19.6 14.1 1.6 22 12.2 17.7 20.8z"/><path fill="none" d="M237.5 169.3a5.9 5.9 0 0 0-4.9 2.9.7.7 0 0 1-1.2 0 6.3 6.3 0 0 0-5.1-2.9c-6.8 0-9 8.2-4.4 12.6l6.8 5.8a5 5 0 0 0 6.7 0l6.1-5.4c4.6-4.4 2.8-13-4-13z"/><path fill="#770547" d="M241.4 182.3l-6.1 5.4a5 5 0 0 1-6.7 0l-6.8-5.8c-4.6-4.4-2.4-12.6 4.4-12.6a6.3 6.3 0 0 1 5.1 2.9.7.7 0 0 0 1.2 0 5.9 5.9 0 0 1 4.9-2.9c6.8 0 8.6 8.6 4 13z"/><path fill="none" d="M209.4 148.2h-.1a7.2 7.2 0 0 0-7.2 7.2 7.3 7.3 0 0 0 7.2 7.3h.1a7.3 7.3 0 0 0 7.2-7.3 7.2 7.2 0 0 0-7.2-7.2z"/><path fill="#81b1ba" d="M254.3 148.2h-.1a7.2 7.2 0 0 0-7.2 7.2 7.3 7.3 0 0 0 7.2 7.3h.1a7.3 7.3 0 0 0 7.2-7.3 7.2 7.2 0 0 0-7.2-7.2zm-29 7.4v-.2a18.7 18.7 0 0 0-18.1-18.6c-7 12.8-9.6 24.3-11.5 33.4a18.7 18.7 0 0 0 11 3.8h.2l2.7-.2a22.5 22.5 0 0 1 15.7-18.2zm-15.9 7.1h-.1a7.3 7.3 0 0 1-7.2-7.3 7.2 7.2 0 0 1 7.2-7.2h.1a7.2 7.2 0 0 1 7.2 7.2 7.3 7.3 0 0 1-7.2 7.3z"/><path fill="#dfebee" d="M231.9 154.6h-.3a18.9 18.9 0 0 0-6.3 1 22.5 22.5 0 0 0-15.7 18.2 18.7 18.7 0 0 0-.3 3.4 22.7 22.7 0 0 0 22.3 22.6h.3a22.6 22.6 0 0 0 0-45.2zm9.6 27.7l-6.1 5.4a5 5 0 0 1-6.7 0l-6.8-5.8c-4.6-4.4-2.4-12.6 4.4-12.6a6.3 6.3 0 0 1 5.1 2.9.8.8 0 0 0 1.2 0 5.9 5.9 0 0 1 4.9-2.9c6.8 0 8.6 8.6 4 13zm-66.8-55.5v55c3.1 6.4 6.8 10 11.4 8.2s7.3-9.6 9.6-19.8 4.5-20.6 11.5-33.4l2.6-4.3c9.8-15.9-18.5-15.7-35.1-5.7zm78.9 5.3c-14.3-22.3 51.8-11.8 45.8 12.6-5.3 21.9-11.4 47.2-22.1 42.9s-5.7-27.3-23.7-55.5z"/><path fill="#056577" d="M162.6 119.8h11.8v84.56h-11.8z"/><path fill="#81b1ba" d="M281.3 236.3a6.7 6.7 0 0 0-2.6.5l-2 1a30.3 30.3 0 0 0-4.3 5l-5.7 7.8c-2.1 2.9-4.5 5.9-7.1 9a68.3 68.3 0 0 1-8.3 8.7 47.1 47.1 0 0 1-9.8 6.4 25.8 25.8 0 0 1-11.2 2.5h-58.7a9.7 9.7 0 0 1-9-7.8V93.5c0-5 .3-8.6 1.1-10.7a7.3 7.3 0 0 1 4.9-4.4 100.9 100.9 0 0 1 13.1-3.4 94.8 94.8 0 0 1 17.4-1.5h7.2c.6 0 1-.1 1.1-.5a1.6 1.6 0 0 0 .3-.8v-9.1a1.6 1.6 0 0 0-.3-.8c-.1-.3-.5-.5-1.1-.5H77.7a1.3 1.3 0 0 0-1.1.5 3.1 3.1 0 0 0-.2.8v9.1l.2.8a1.3 1.3 0 0 0 1.1.5h3.7a60 60 0 0 1 9 .9 46.1 46.1 0 0 1 11.1 3.1 28.4 28.4 0 0 1 9.3 6.1 13.1 13.1 0 0 1 4 9.9V262a2.2 2.2 0 0 0-.1.8 14.9 14.9 0 0 1-.2 2.1 21.9 21.9 0 0 1-2.6 7.7 20.4 20.4 0 0 1-6.3 7.1 14.3 14.3 0 0 1-2.4 1.6 28.5 28.5 0 0 1-6.5 2.5c-2.6.6-5.1 1.2-7.5 1.6s-4.5.6-6.4.8l-3.2.3h-4c-.7 0-1.1.1-1.2.5a3.1 3.1 0 0 0-.2.8v9.1a1.6 1.6 0 0 0 .3.8c.1.3.5.5 1.1.5h176.7a3.2 3.2 0 0 0 2-.8 13.9 13.9 0 0 0 1.5-2.2l27.8-54.7a3.5 3.5 0 0 0 .5-2c0-1.4-.9-2.2-2.8-2.2z"/></svg>