<svg viewBox="0 0 2033.2 405" xmlns="http://www.w3.org/2000/svg"><path d="m80.6 227.9v-2.6c-35-10.2-18.9-57.1-16.7-68.7 1.5-8.2-7.5-2-11.4 4.1s-28.2 70.6 28.1 86.5z" fill="#81b1ba"/><path d="m262.4 208.1c.5 4.3-4.3 7.7-9.8 8.3s-8.8 4.6-12 8.3-8.1 4.1-11.2.5c-7-8-2.3-22 8.3-26.4 12.7-5.2 23.5.1 24.7 9.3z" fill="#81b1ba"/><path d="m187.7 252c-3 6-9.8 3.4-18.4 3.7s-14.9 3-18.7-4.8c-4.6-9.6 8.7-20.3 20.1-19 13.6 1.6 21.3 11.8 17 20.1z" fill="#81b1ba"/><path d="m210.7 162.8a5.9 5.9 0 0 0 -4.8 2.8.6.6 0 0 1 -1.1 0c-1.6-2.7-5-2.7-5-2.7-6.5 0-8.6 7.9-4.2 12.1l6.6 5.6a4.8 4.8 0 0 0 6.5 0l5.9-5.2c4.4-4.2 2.6-12.6-3.9-12.6z" fill="none"/><path d="m183.5 142.4h-.1a7.1 7.1 0 0 0 -6.9 7 6.9 6.9 0 0 0 6.9 7h.1a7 7 0 0 0 7-7 7.1 7.1 0 0 0 -7-7z" fill="none"/><path d="m226.9 142.4h-.1a7.1 7.1 0 0 0 -6.9 7 6.9 6.9 0 0 0 6.9 7h.1a6.9 6.9 0 0 0 6.9-7 7.1 7.1 0 0 0 -6.9-7z" fill="#dfebee"/><path d="m198.9 149.6v-.2a18 18 0 0 0 -17.5-17.9c-6.8 12.3-9.3 23.4-11.2 32.2a18.2 18.2 0 0 0 10.7 3.7h.2l2.6-.2a21.6 21.6 0 0 1 15.2-17.6zm-15.4 6.8h-.1a6.9 6.9 0 0 1 -6.9-7 7.1 7.1 0 0 1 6.9-7h.1a7.1 7.1 0 0 1 7 7 7 7 0 0 1 -7 7z" fill="#dfebee"/><path d="m205.3 148.6h-.3a20.5 20.5 0 0 0 -6.1 1 21.6 21.6 0 0 0 -15.2 17.6 16.9 16.9 0 0 0 -.3 3.3 21.9 21.9 0 0 0 21.6 21.8h.3a21.9 21.9 0 0 0 0-43.7zm9.3 26.8-5.9 5.2a4.8 4.8 0 0 1 -6.5 0l-6.6-5.6c-4.4-4.2-2.3-12.1 4.2-12.1 0 0 3.4 0 5 2.7a.6.6 0 0 0 1.1 0 5.9 5.9 0 0 1 4.8-2.8c6.5 0 8.3 8.4 3.9 12.6z" fill="#81b1ba"/><path d="m150 121.7v53.2c3 6.3 6.6 9.7 11 7.9s7.1-9.2 9.2-19.1 4.4-19.9 11.2-32.2c.8-1.4 1.6-2.8 2.5-4.2 9.5-15.4-17.9-15.2-33.9-5.6z" fill="#81b1ba"/><path d="m226.2 126.9c-13.8-21.6 50.1-11.4 44.3 12.2-5.1 21.1-11 45.6-21.3 41.5s-5.5-26.5-23-53.7z" fill="#81b1ba"/><path d="m214.5 175.4-5.9 5.2a4.8 4.8 0 0 1 -6.5 0l-6.6-5.6c-4.4-4.2-2.3-12.1 4.2-12.1 0 0 3.4 0 5 2.7.3.5.9.5 1.1 0a5.9 5.9 0 0 1 4.8-2.8c6.5 0 8.3 8.4 3.9 12.6z" fill="#770547"/><g fill="#dfebee"><path d="m253 227.6a6.2 6.2 0 0 0 -2.5.5l-1.9 1a27.3 27.3 0 0 0 -4.2 4.8l-5.5 7.5c-2.1 2.8-4.3 5.7-6.8 8.8a70.7 70.7 0 0 1 -8.1 8.3 42.4 42.4 0 0 1 -9.5 6.3 25.1 25.1 0 0 1 -10.8 2.4h-56.7a8.4 8.4 0 0 1 -5.8-2.4 8.9 8.9 0 0 1 -2.9-5.2v-170c0-4.9.3-8.3 1-10.3s2.3-3.4 4.8-4.3a73.6 73.6 0 0 1 12.6-3.2 89.3 89.3 0 0 1 16.9-1.5h7a1 1 0 0 0 1-.5 1.6 1.6 0 0 0 .3-.8v-8.8a2 2 0 0 0 -.3-.8c-.1-.3-.5-.4-1-.4h-124.3c-.6 0-.9.1-1.1.4a4.5 4.5 0 0 0 -.2.8v8.8l.2.7a1.1 1.1 0 0 0 1.1.6h3.5a67.8 67.8 0 0 1 8.7.8 41.8 41.8 0 0 1 10.7 3 29.8 29.8 0 0 1 9.1 5.9 13 13 0 0 1 3.8 9.6v161.7a3.7 3.7 0 0 1 -.1 1.1v.8a14.9 14.9 0 0 1 -.2 2.1 21.6 21.6 0 0 1 -2.5 7.4 20 20 0 0 1 -6.1 6.9l-2.3 1.5a26.8 26.8 0 0 1 -6.3 2.4 51.4 51.4 0 0 1 -7.2 1.5l-6.2.9-3.2.2h-3.8c-.7 0-1.1.2-1.2.5a2.5 2.5 0 0 0 -.1.8v8.7a1.6 1.6 0 0 0 .2.9c.2.3.5.4 1.1.4h170.8a2.4 2.4 0 0 0 1.9-.8 9.5 9.5 0 0 0 1.5-2.1l26.9-52.8a4.5 4.5 0 0 0 .5-1.9c0-1.4-1-2.2-2.8-2.2z"/><path d="m275.2 211.8a67.4 67.4 0 0 1 6.7-29.1 82.5 82.5 0 0 1 18.1-24.6 86.2 86.2 0 0 1 26.4-17 81.2 81.2 0 0 1 31.7-6.3 91.7 91.7 0 0 1 33.1 6 88.6 88.6 0 0 1 27.6 16.4 78.6 78.6 0 0 1 18.9 24.6 68.7 68.7 0 0 1 6.9 30.6 75.5 75.5 0 0 1 -6.4 31.3 74.7 74.7 0 0 1 -17.7 25.2 81 81 0 0 1 -26.9 16.7 92.3 92.3 0 0 1 -34.1 6.1 90.2 90.2 0 0 1 -33.7-6.2 83.5 83.5 0 0 1 -26.7-17 77.3 77.3 0 0 1 -17.6-25.3 78.3 78.3 0 0 1 -6.3-31.4zm41.4-10.2a141.2 141.2 0 0 0 1.3 18 136.8 136.8 0 0 0 3.9 18.2 88.8 88.8 0 0 0 6.6 16.5 59.2 59.2 0 0 0 9.4 13.7 42.9 42.9 0 0 0 12.5 9.3 34.8 34.8 0 0 0 15.7 3.4 27.2 27.2 0 0 0 16.4-4.9 38.2 38.2 0 0 0 11.3-12.9 61.9 61.9 0 0 0 6.6-17.8 94.2 94.2 0 0 0 2.1-19.7 100.7 100.7 0 0 0 -1.5-16.8 107.8 107.8 0 0 0 -4.3-17.4 106.7 106.7 0 0 0 -7.2-16.6 65.6 65.6 0 0 0 -9.7-14 43.6 43.6 0 0 0 -12.5-9.6 31.9 31.9 0 0 0 -15-3.6 26.2 26.2 0 0 0 -15.7 4.9 39.4 39.4 0 0 0 -11.1 12.8 69 69 0 0 0 -6.6 17.5 88.7 88.7 0 0 0 -2.2 19z"/><path d="m507 387.6a16.3 16.3 0 0 1 -10.7-3.7 14 14 0 0 1 -3.6-4.1 10.5 10.5 0 0 1 -1.4-5.3q0-4.5 2.4-6.9a19 19 0 0 1 5.7-4.1 54.8 54.8 0 0 1 7.1-2.7 20.6 20.6 0 0 0 6.3-3.1 45 45 0 0 0 3.8-3 13.8 13.8 0 0 0 3.7-5.4l21.2-49.3-62-129.3a38.1 38.1 0 0 0 -7.9-13 29.9 29.9 0 0 0 -12.6-8l-2.8-.8a16 16 0 0 1 -3.1-1 6.9 6.9 0 0 1 -2.6-1.7 3.9 3.9 0 0 1 -1.1-2.8 6 6 0 0 1 1-3.3 3.1 3.1 0 0 1 2.9-1.6h85.4c.7 0 1 .7 1.1 2a14.3 14.3 0 0 1 .2 2.4 3.1 3.1 0 0 1 -1.9 3.1 13.4 13.4 0 0 1 -4.6 1.2 52 52 0 0 1 -5.9.5 19.4 19.4 0 0 0 -5.9 1.2 10.8 10.8 0 0 0 -4.6 3q-1.8 2.1-1.8 6.3a6 6 0 0 0 .7 2.1 6.2 6.2 0 0 1 .7 1.8l40.1 85.9a13.1 13.1 0 0 0 1.2 2.4 2.5 2.5 0 0 0 2.1 1.5 1.9 1.9 0 0 0 1.3-.7 9.9 9.9 0 0 0 1.1-1.7c.3-.7.6-1.3.8-1.9a8.7 8.7 0 0 1 .5-1.2l12.5-32.3 8.4-22 5.1-13.7c1.1-3.3 1.9-5.8 2.4-7.6a31.1 31.1 0 0 0 .9-3.9 18.5 18.5 0 0 0 .1-2.3 11.7 11.7 0 0 0 -3.4-9.4 21.3 21.3 0 0 0 -12.5-6.3 18.4 18.4 0 0 1 -4.2-.8 9.2 9.2 0 0 1 -3.6-1.7 4.4 4.4 0 0 1 -1.5-3.5 5.5 5.5 0 0 1 1.1-2.9 3.3 3.3 0 0 1 2.5-1.5h64.5c.9 0 1.4.6 1.5 1.9a18.5 18.5 0 0 1 .3 2.6 6 6 0 0 1 -.3 2 3.8 3.8 0 0 1 -1.6 1.4 12.7 12.7 0 0 1 -3.4 1.3 35.1 35.1 0 0 1 -5.7 1.3 13.4 13.4 0 0 0 -6.2 3.3 33.5 33.5 0 0 0 -4.9 6.2 51.2 51.2 0 0 0 -3.9 7.3l-3 7-82 203.2a16.4 16.4 0 0 1 -3.7 5.3 25.4 25.4 0 0 1 -5.4 3.6 21.3 21.3 0 0 1 -5.8 2.1 24.9 24.9 0 0 1 -5 .6z"/><path d="m714.1 284.1a43 43 0 0 1 -12.6 5.8 52.6 52.6 0 0 1 -14.6 2.1c-13.1 0-23.1-2.9-30-8.9s-10.3-13.9-10.3-24.1a28 28 0 0 1 4-15 38.2 38.2 0 0 1 11.7-11.2 96.1 96.1 0 0 1 19.2-8.8c7.6-2.6 16.4-5.3 26.5-7.8a64 64 0 0 0 13-4.6c3.3-1.6 6.3-3.1 9.1-4.7s2.9-1.8 3.2-2.5a9.3 9.3 0 0 0 .4-2.2v-28.1a29.5 29.5 0 0 0 -1.6-10 21.6 21.6 0 0 0 -12-13.3 24 24 0 0 0 -9.9-1.9 22.8 22.8 0 0 0 -8.7 1.6 19.6 19.6 0 0 0 -7 4.7 23.3 23.3 0 0 0 -4.6 7.3 25.5 25.5 0 0 0 -1.7 9.5c0 .3.1.8.1 1.5s.1 1.3.2 2 .3 1.3.4 1.8a5.8 5.8 0 0 1 .1 1 7.7 7.7 0 0 1 -2.6 1.3l-6.2 2.2-8 2.4-8.3 2.4-7 2a28 28 0 0 1 -4.1 1 2.1 2.1 0 0 1 -2.2-1.8 16.1 16.1 0 0 1 -.4-3.7 33.3 33.3 0 0 1 5.7-18.2 56.4 56.4 0 0 1 15.1-15.8 81.3 81.3 0 0 1 21.8-11.1 77.8 77.8 0 0 1 25.4-4.2 66.9 66.9 0 0 1 20.8 3 47.7 47.7 0 0 1 15.7 8.2 37 37 0 0 1 9.9 12.2 33 33 0 0 1 3.4 14.6v77.2a10.5 10.5 0 0 0 3.1 7.5 10.9 10.9 0 0 0 8.2 3.3 13.2 13.2 0 0 0 5.3-1 22.2 22.2 0 0 0 4.2-2.5l3.1-2.4a3.8 3.8 0 0 1 2.3-1c.8 0 1.3.3 1.4 1a13.7 13.7 0 0 1 .2 1.9 20.8 20.8 0 0 1 -.7 5.5 7.3 7.3 0 0 1 -2.5 4.2l-14.1 10.7c-4.1 3.2-7.8 5.9-11.2 8.2a55 55 0 0 1 -9 5.2 19 19 0 0 1 -7.6 1.8 9.7 9.7 0 0 1 -5.8-1.8 20 20 0 0 1 -4.3-4.4 28 28 0 0 1 -3.2-5.6 58.5 58.5 0 0 1 -2.2-5.6c-.6-1.7-1-3.1-1.4-4.2s-.5-1.5-.8-1.4zm-29.8-29a13.9 13.9 0 0 0 1.7 7.2 12.9 12.9 0 0 0 4.5 4.2 22.6 22.6 0 0 0 6.2 2 42 42 0 0 0 7.2.6 27.7 27.7 0 0 0 8.4-1.7 54.5 54.5 0 0 0 9.8-4.6 38.2 38.2 0 0 0 8.2-6.4c2.2-2.5 3.4-4.9 3.4-7.4v-26.7c0-1.2-.4-1.8-1.3-1.8l-.7.2-37.5 17.5a48.5 48.5 0 0 0 -4.1 3 13.9 13.9 0 0 0 -3.2 3.2 13.6 13.6 0 0 0 -1.9 4.4 26.8 26.8 0 0 0 -.7 6.3z"/><path d="m892.4 282.5a16.8 16.8 0 0 1 -.3 2.7c-.2 1.2-.6 1.9-1.3 2.1h-84.4c-.7-.2-1.1-.9-1.3-2.1a16.8 16.8 0 0 1 -.3-2.7 8.6 8.6 0 0 1 .5-2.6c.3-1.2.6-1.9 1.1-2.1a21.6 21.6 0 0 1 6-1.5 32.2 32.2 0 0 0 7.7-2.3 17.3 17.3 0 0 0 6.8-5.3c2-2.5 2.9-6.1 2.9-10.8v-188.6a8.5 8.5 0 0 0 -2.1-6.1 12 12 0 0 0 -5.3-3.3 47.7 47.7 0 0 0 -7-1.9c-2.4-.5-4.8-1-7.1-1.7s-2.1-2-2.1-4.5a8.2 8.2 0 0 1 .5-2.2 4.4 4.4 0 0 1 1.9-2.2l53.6-25.2 1.5-.7a4.7 4.7 0 0 1 1.7-.3c.9 0 1.4.3 1.6.9a7.4 7.4 0 0 1 .4 3v232.8c0 4.7.9 8.3 2.9 10.8a17.3 17.3 0 0 0 6.8 5.3 33.6 33.6 0 0 0 7.7 2.3 21.6 21.6 0 0 1 6 1.5c.5.2.8.9 1.2 2.1a11.6 11.6 0 0 1 .4 2.6z"/><path d="m994.2 278.9.2-.7c.1-.4.5-.6 1.1-.6l3.1-.3 4.4-.6 4.2-.8 2.7-.5q9.3-2.1 12.9-6.9a19.3 19.3 0 0 0 3.6-11.9v-164.4c0-5.4-1.1-9.6-3.4-12.7a22.7 22.7 0 0 0 -7.8-7.1 28.2 28.2 0 0 0 -8.6-2.9 46.3 46.3 0 0 0 -5.6-.6h-6.1c-.6 0-.9-.1-1.1-.4a3.7 3.7 0 0 1 -.2-.9v-7.1a2 2 0 0 1 .1-.7q.1-.4 1.2-.6h3l5.2-.2 9.6-.3 19-.4 20.4-.7 20.5-.5 19-.3h16.4a83 83 0 0 1 26 4.4 78.1 78.1 0 0 1 24 12.8 67.8 67.8 0 0 1 17.7 21.2c4.5 8.4 6.8 18.1 6.8 29.1a56.2 56.2 0 0 1 -2.9 19 49.7 49.7 0 0 1 -8 14.7 53.9 53.9 0 0 1 -12.1 11.2 94.4 94.4 0 0 1 -15.3 8.6l49 77.7a99.3 99.3 0 0 0 14.7 18.2 47.4 47.4 0 0 0 19.6 11.4q1.4.3 1.5.9a2.5 2.5 0 0 1 .3 1.3c0 1.7-.4 2.7-1.3 3.3a8.3 8.3 0 0 1 -4 .8 154.8 154.8 0 0 1 -32.9-3.8 110.9 110.9 0 0 1 -16.6-5.3 43.3 43.3 0 0 1 -13.2-8.1 85.3 85.3 0 0 1 -10.5-11.4c-3.5-4.7-7.1-9.7-10.7-15s-7.2-10.9-10.7-16.7l-10.2-16.9c-3.3-5.5-6.4-10.6-9.5-15.3s-5.7-8.8-8.2-12.2l-25.2-1.8h-1.3a2.7 2.7 0 0 0 -1.7.4 1.7 1.7 0 0 0 -.6.6 3.5 3.5 0 0 0 -.2 1.3v68.9a21.6 21.6 0 0 0 1.2 7.6 12.5 12.5 0 0 0 3.8 5.6 19.7 19.7 0 0 0 6.9 3.8 59.3 59.3 0 0 0 10.5 2.3l2.8.5 4 .7 4.3.7 3.6.3c.6 0 1 .2 1.1.5a3.1 3.1 0 0 1 .2.8v7.1a1.9 1.9 0 0 1 -.3.9c-.1.3-.5.4-1 .4h-114.1c-.5 0-.9-.7-1-2.2a31.9 31.9 0 0 1 -.3-4.2zm78.7-110.1a6.2 6.2 0 0 0 .7 2.3 2.6 2.6 0 0 0 2.3 1.2l4.4.6a56.7 56.7 0 0 0 8.1.4c9.5 0 17.3-1.5 23.4-4.4a37.2 37.2 0 0 0 14.6-11.7 44.5 44.5 0 0 0 7.4-16.9 99.5 99.5 0 0 0 2-19.9 61.4 61.4 0 0 0 -3.4-20.6 53.2 53.2 0 0 0 -9.5-16.8 45.8 45.8 0 0 0 -14.5-11.3 41.7 41.7 0 0 0 -18.7-4.2h-6.1l-2.7.2-4.3.2a14.1 14.1 0 0 0 -2.5.4 2 2 0 0 0 -1.6 2.2v93.2z"/><path d="m1236 221.8a107.6 107.6 0 0 1 5.3-34.8 80.6 80.6 0 0 1 15.4-27.6 68.1 68.1 0 0 1 24.5-18.1c9.6-4.4 20.6-6.5 32.9-6.5a59 59 0 0 1 9.9.7 58.4 58.4 0 0 1 8 2 37.6 37.6 0 0 1 6.8 2.9l6.4 3.6a35.9 35.9 0 0 1 8.5 7 80 80 0 0 1 16 25.8 38.7 38.7 0 0 1 3 14.4 15.6 15.6 0 0 1 -.9 5q-.9 2.7-3 2.7h-95.5c-1.1 0-1.8.9-2.2 2.9a46.3 46.3 0 0 0 -.5 7.1 73.4 73.4 0 0 0 4.1 25.3 58.1 58.1 0 0 0 11.1 18.8 47 47 0 0 0 35.1 15.6 44.2 44.2 0 0 0 12.1-1.7 63.9 63.9 0 0 0 11.2-4.5 83.3 83.3 0 0 0 10-6.1c3.1-2.3 6.1-4.5 8.9-6.8l1.3-.3a1.9 1.9 0 0 1 1.3.8 20.9 20.9 0 0 1 2.9 3c1 1.1 1.7 2 2.3 2.8a1.4 1.4 0 0 1 .5 1 1.6 1.6 0 0 1 -.7 1.1 87.4 87.4 0 0 1 -13.1 12.4 124.4 124.4 0 0 1 -16.6 10.8 97.5 97.5 0 0 1 -18 7.7 59.3 59.3 0 0 1 -17.5 2.9c-11.1 0-21-2-29.6-6.1a67.2 67.2 0 0 1 -35.3-38.3 72.7 72.7 0 0 1 -4.6-25.5zm94.9-35.4c2.8 0 4.2-1.2 4.2-3.7a33.4 33.4 0 0 0 -2-11.9 32.4 32.4 0 0 0 -5.7-9.9 27.2 27.2 0 0 0 -9-6.7 27.8 27.8 0 0 0 -11.7-2.4 26.9 26.9 0 0 0 -13.6 3.3 37.4 37.4 0 0 0 -9.9 8 36.4 36.4 0 0 0 -6.1 9.7 24.4 24.4 0 0 0 -2 8.6 7.6 7.6 0 0 0 .8 3.9 2.8 2.8 0 0 0 2.1 1.1z"/><path d="m1420.6 286.4a3.8 3.8 0 0 0 -2.6.8 12.4 12.4 0 0 0 -2.2 1.8l-2 1.9a3.8 3.8 0 0 1 -2.3.8h-5.8c-.2 0-.6-1.6-1-4.7s-.9-6.9-1.4-11.2-.9-8.9-1.2-13.6-.5-8.6-.5-11.7.7-2.9 1.9-3.4a12.9 12.9 0 0 1 4-.7 5.6 5.6 0 0 1 2.5.8 16.4 16.4 0 0 1 2.6 2l2.1 2.5a14.5 14.5 0 0 1 1.5 2.3c1.8 4 3.7 7.6 5.5 10.9a35 35 0 0 0 6.3 8.2 26.1 26.1 0 0 0 8.4 5.3 33.9 33.9 0 0 0 11.7 1.8 17.4 17.4 0 0 0 8.4-1.8 13.1 13.1 0 0 0 5-4.6 16.7 16.7 0 0 0 2.3-6.7 48.1 48.1 0 0 0 .6-7.7 20.3 20.3 0 0 0 -4.8-13.7 66.7 66.7 0 0 0 -12.1-10.5c-4.8-3.2-10-6.5-15.7-9.8a90.3 90.3 0 0 1 -15.7-11.7 56.9 56.9 0 0 1 -12-15.7c-3.3-6.1-4.9-13.7-4.9-22.6a26.6 26.6 0 0 1 4.9-15.1 50.3 50.3 0 0 1 12.6-13.1 71.6 71.6 0 0 1 17.4-9 56.4 56.4 0 0 1 19.2-3.4 58.3 58.3 0 0 1 10.1.9 93.7 93.7 0 0 1 9.3 2 71.7 71.7 0 0 1 7.3 2.3 24.5 24.5 0 0 1 3.8 1.6 5.5 5.5 0 0 1 1.9 2.5 17.8 17.8 0 0 1 1 5.4c.1 2.5.2 5.8.3 10s.1 9.5.1 16.2a4.3 4.3 0 0 1 -2.1 4 7.4 7.4 0 0 1 -3.9 1.2 8.4 8.4 0 0 1 -3.5-.7 3.3 3.3 0 0 1 -2.2-2.1c-1.3-3.3-2.7-6.7-4.4-10.1a52.1 52.1 0 0 0 -5.5-9.2 25.7 25.7 0 0 0 -7.4-6.6 18.2 18.2 0 0 0 -9.7-2.5 24.1 24.1 0 0 0 -6.5.8 13.7 13.7 0 0 0 -5.8 3.1 16.5 16.5 0 0 0 -4.1 6.4 30.3 30.3 0 0 0 -1.6 10.4q0 5.4 5.1 10.2a87.3 87.3 0 0 0 12.7 9.4l16.6 10.3a108.2 108.2 0 0 1 16.6 12.6 65.6 65.6 0 0 1 12.7 16.4c3.4 6.2 5.1 13.6 5.1 22a30.1 30.1 0 0 1 -4.9 16.9 44.1 44.1 0 0 1 -12.4 12.7 64.1 64.1 0 0 1 -16.9 8 62 62 0 0 1 -18.2 2.8 55.9 55.9 0 0 1 -9.1-.8 71.4 71.4 0 0 1 -8.2-1.9l-6.2-1.8a12.5 12.5 0 0 0 -2.7-.8z"/><path d="m1525.9 218.9c.1-15.6 2.5-28.8 7.1-39.5s10.9-19.4 18.6-26a71.1 71.1 0 0 1 27.1-14.2 115.5 115.5 0 0 1 32.5-4.4l8.5.2c3.2.2 6.6.5 10.1 1a71.1 71.1 0 0 1 10.4 2.2 40.4 40.4 0 0 1 9.2 3.9 22.2 22.2 0 0 1 6.7 6.2 15.7 15.7 0 0 1 2.5 8.8 10.5 10.5 0 0 1 -5.5 10 19.1 19.1 0 0 1 -6 1.8 55.8 55.8 0 0 1 -7.3.5 17.9 17.9 0 0 1 -7.7-1.5 28.3 28.3 0 0 1 -5.7-3.8 31.7 31.7 0 0 1 -4.9-4.8 37.8 37.8 0 0 0 -4.9-4.9 28.3 28.3 0 0 0 -6.1-3.7 20.4 20.4 0 0 0 -8.2-1.5q-11.4 0-18.6 5.7a39.1 39.1 0 0 0 -11.4 14.6 66.6 66.6 0 0 0 -5.7 19.3 142.3 142.3 0 0 0 -1.5 20.1 110.3 110.3 0 0 0 2.4 23.8 53.8 53.8 0 0 0 7.8 18.9 37.6 37.6 0 0 0 14.1 12.4c5.8 2.9 12.8 4.4 21 4.4a30.1 30.1 0 0 0 8.9-1.4 39.5 39.5 0 0 0 8.6-4 62.3 62.3 0 0 0 7.8-5.7 73.9 73.9 0 0 0 6.7-7 23.9 23.9 0 0 1 3.1-3.2 7.4 7.4 0 0 1 4.8-1.3 10.9 10.9 0 0 1 6.7 2c1.9 1.3 2.9 2.8 2.9 4.3a6.7 6.7 0 0 1 -.3 1.7 9.6 9.6 0 0 1 -1.7 3 119.5 119.5 0 0 1 -13.3 14.2 80.4 80.4 0 0 1 -15.2 11 73.7 73.7 0 0 1 -17.4 7 74.6 74.6 0 0 1 -19.8 2.5 55 55 0 0 1 -25.9-6.2 69 69 0 0 1 -21.1-16.5 77.7 77.7 0 0 1 -14.1-23.3 70.4 70.4 0 0 1 -5.2-26.6z"/><path d="m1693.4 161.2a17.6 17.6 0 0 0 -8.1-4.2 10.1 10.1 0 0 0 -2.5-.5 9 9 0 0 1 -2.5-.3 3.7 3.7 0 0 1 -1.9-.8 2.3 2.3 0 0 1 -.7-2 5.6 5.6 0 0 1 .4-2.3c.2-.6 1-1.1 2.2-1.4l49.3-14.3 2-.5h2c1.1 0 1.7.9 1.7 2.7v109.1a19.8 19.8 0 0 0 2.5 10 22.4 22.4 0 0 0 6.5 7.5 29.6 29.6 0 0 0 9.2 4.7 35.6 35.6 0 0 0 10.7 1.6 26.3 26.3 0 0 0 8.1-1.3 40.5 40.5 0 0 0 8.1-3.3 43.2 43.2 0 0 0 7.3-4.7 29 29 0 0 0 5.5-5.6v-86.5a12.1 12.1 0 0 0 -4.3-8 18.1 18.1 0 0 0 -8.2-4.3 9.3 9.3 0 0 0 -2.5-.4l-2.5-.3a5.6 5.6 0 0 1 -1.9-.9 2.5 2.5 0 0 1 -.7-2 7.2 7.2 0 0 1 .4-2.2 2.9 2.9 0 0 1 2.2-1.5l49.4-14.1 2-.5h2c1.1 0 1.6.5 1.6 1.4v111.6c.5 4.7 1.9 8.1 4.1 10.2s5.6 3 10.5 3l9.4-.6c.4 0 .7.7.8 2.2s.1 2.5.1 3.1a12.3 12.3 0 0 1 -.4 2.1 3.4 3.4 0 0 1 -2 2.6l-49.2 20.2-1.6.6-1.5.4c-.7 0-1.2-.4-1.3-1.4a12.2 12.2 0 0 1 -.3-2.6v-15.6a1.8 1.8 0 0 0 -1.6-.6h-.6c-.3 0-.4.1-.4.3l-25.8 12.6-6.7 2.5-6 2.4a59.8 59.8 0 0 1 -6.4 1.8 43.8 43.8 0 0 1 -7.5.6 81.9 81.9 0 0 1 -14.9-1.4 64 64 0 0 1 -15.2-4.3 37.1 37.1 0 0 1 -11.8-7.7 15.5 15.5 0 0 1 -4.7-11.3v-97.8a11.7 11.7 0 0 0 -4.3-8z"/><path d="m1876.7 221.8a110.4 110.4 0 0 1 5.3-34.8 80.6 80.6 0 0 1 15.4-27.6 68.1 68.1 0 0 1 24.5-18.1c9.7-4.4 20.6-6.5 32.9-6.5a59 59 0 0 1 9.9.7 55 55 0 0 1 8 2 37.6 37.6 0 0 1 6.8 2.9l6.4 3.6a34 34 0 0 1 8.5 7 78.9 78.9 0 0 1 9 11.6 85.6 85.6 0 0 1 7.1 14.2 40.6 40.6 0 0 1 2.9 14.4 15.6 15.6 0 0 1 -.9 5q-.9 2.7-3 2.7h-95.4c-1.1 0-1.9.9-2.2 2.9a35.5 35.5 0 0 0 -.6 7.1 73.4 73.4 0 0 0 4.1 25.3 60 60 0 0 0 11.1 18.8 47 47 0 0 0 35.1 15.6 43.7 43.7 0 0 0 12.1-1.7 61 61 0 0 0 11.2-4.5 76.1 76.1 0 0 0 10-6.1c3.2-2.3 6.1-4.5 8.9-6.8l1.3-.3a1.7 1.7 0 0 1 1.3.8 16.6 16.6 0 0 1 2.9 3 22.1 22.1 0 0 1 2.3 2.8 1.4 1.4 0 0 1 .5 1 1.6 1.6 0 0 1 -.7 1.1 87.4 87.4 0 0 1 -13.1 12.4 123.3 123.3 0 0 1 -16.5 10.8 98.4 98.4 0 0 1 -18.1 7.7 59.3 59.3 0 0 1 -17.5 2.9c-11.1 0-20.9-2-29.6-6.1a66.4 66.4 0 0 1 -21.8-15.9 69.1 69.1 0 0 1 -13.5-22.4 72.7 72.7 0 0 1 -4.6-25.5zm94.9-35.4c2.8 0 4.3-1.2 4.3-3.7a33.5 33.5 0 0 0 -2.1-11.9 30.5 30.5 0 0 0 -5.7-9.9 27.2 27.2 0 0 0 -9-6.7 27.8 27.8 0 0 0 -11.7-2.4 27.1 27.1 0 0 0 -13.6 3.3 37.4 37.4 0 0 0 -9.9 8 33.7 33.7 0 0 0 -6 9.7 22.8 22.8 0 0 0 -2.1 8.6 7.6 7.6 0 0 0 .8 3.9 2.8 2.8 0 0 0 2.1 1.1z"/></g></svg>