<svg xmlns="http://www.w3.org/2000/svg" viewBox="0 0 1994.4 405" width="1994.4" height="405"><path fill="#dfebee" d="M214.1 227.6a6.6 6.6 0 0 0-2.5.5l-1.8 1a31.7 31.7 0 0 0-4.3 4.8l-5.5 7.5c-2 2.8-4.3 5.7-6.8 8.8a70.7 70.7 0 0 1-8.1 8.3 40.2 40.2 0 0 1-9.5 6.3 24.6 24.6 0 0 1-10.7 2.4h-56.7a8.4 8.4 0 0 1-5.9-2.4 8.9 8.9 0 0 1-2.9-5.2v-170c0-4.9.4-8.3 1.1-10.3a7 7 0 0 1 4.7-4.3 75.1 75.1 0 0 1 12.7-3.2 89 89 0 0 1 16.8-1.5h7a1.3 1.3 0 0 0 1.1-.5 3.1 3.1 0 0 0 .2-.8v-8.8a4.5 4.5 0 0 0-.2-.8 1.2 1.2 0 0 0-1.1-.4H17.4c-.5 0-.9.1-1 .4a2 2 0 0 0-.3.8V69a1.7 1.7 0 0 0 .3.7.9.9 0 0 0 1 .6H21a68.1 68.1 0 0 1 8.6.8 40.7 40.7 0 0 1 10.7 3 28.6 28.6 0 0 1 9.1 5.9 13 13 0 0 1 3.8 9.6v162.8a1.9 1.9 0 0 1-.1.8 14.9 14.9 0 0 1-.2 2.1 23.8 23.8 0 0 1-2.4 7.4 20.4 20.4 0 0 1-6.2 6.9l-2.3 1.5a26.8 26.8 0 0 1-6.3 2.4 51.4 51.4 0 0 1-7.2 1.5l-6.2.9-3.1.2h-3.9c-.7 0-1 .2-1.1.5a3.1 3.1 0 0 0-.2.8v8.7a3.7 3.7 0 0 0 .2.9 1.2 1.2 0 0 0 1.1.4h170.8a2.2 2.2 0 0 0 1.9-.8 5.7 5.7 0 0 0 1.5-2.1l26.9-52.8a4.5 4.5 0 0 0 .5-1.9c0-1.4-.9-2.2-2.8-2.2zm22.3-15.8a66 66 0 0 1 6.7-29.1 84 84 0 0 1 18-24.6 88.6 88.6 0 0 1 26.4-17 81.2 81.2 0 0 1 31.7-6.3 92.6 92.6 0 0 1 33.2 6 89.3 89.3 0 0 1 27.5 16.4 75.8 75.8 0 0 1 18.9 24.6 68.7 68.7 0 0 1 7 30.6 76.5 76.5 0 0 1-24.2 56.5 81 81 0 0 1-26.9 16.7 92.1 92.1 0 0 1-34 6.1 90.7 90.7 0 0 1-33.8-6.2 83.5 83.5 0 0 1-26.7-17 77 77 0 0 1-17.5-25.3 78.3 78.3 0 0 1-6.3-31.4zm41.4-10.2a125.1 125.1 0 0 0 1.3 18 111.2 111.2 0 0 0 3.9 18.2 96 96 0 0 0 6.5 16.5A59.6 59.6 0 0 0 299 268a41.2 41.2 0 0 0 12.4 9.3 35.1 35.1 0 0 0 15.7 3.4c6.4 0 11.9-1.6 16.4-4.9a39.6 39.6 0 0 0 11.4-12.9 64.8 64.8 0 0 0 6.5-17.8 94.2 94.2 0 0 0 2.1-19.7 111.9 111.9 0 0 0-1.4-16.8 119.9 119.9 0 0 0-4.4-17.4 106.3 106.3 0 0 0-7.1-16.6 65.9 65.9 0 0 0-9.8-14 42.3 42.3 0 0 0-12.5-9.6 31.3 31.3 0 0 0-14.9-3.6 26.5 26.5 0 0 0-15.8 4.9 39.4 39.4 0 0 0-11.1 12.8 65.2 65.2 0 0 0-6.5 17.5 82.7 82.7 0 0 0-2.2 19zm190.3 186a17.7 17.7 0 0 1-5.6-.9 17.4 17.4 0 0 1-5-2.8 14.4 14.4 0 0 1-3.7-4.1 10.4 10.4 0 0 1-1.3-5.3c0-3 .7-5.3 2.3-6.9a21.9 21.9 0 0 1 5.7-4.1 56.2 56.2 0 0 1 7.2-2.7 23.1 23.1 0 0 0 6.3-3.1l3.8-3a14.9 14.9 0 0 0 3.6-5.4l21.2-49.3-62-129.3a36.6 36.6 0 0 0-7.9-13 28.7 28.7 0 0 0-12.6-8l-2.8-.8a18.6 18.6 0 0 1-3.1-1 7.8 7.8 0 0 1-2.6-1.7 3.9 3.9 0 0 1-1-2.8 6.8 6.8 0 0 1 .9-3.3 3.2 3.2 0 0 1 2.9-1.6h85.5c.6 0 1 .7 1.1 2s.1 2.1.1 2.4a3.2 3.2 0 0 1-1.8 3.1 14.7 14.7 0 0 1-4.6 1.2 54.1 54.1 0 0 1-5.9.5 18.8 18.8 0 0 0-5.9 1.2 9.7 9.7 0 0 0-4.6 3c-1.3 1.4-1.9 3.5-1.9 6.3a6 6 0 0 0 .7 2.1 8.6 8.6 0 0 1 .8 1.8L518 248a13.1 13.1 0 0 0 1.2 2.4c.6 1 1.3 1.5 2 1.5a1.7 1.7 0 0 0 1.3-.7 9.9 9.9 0 0 0 1.1-1.7 9.7 9.7 0 0 0 .8-1.9c.3-.6.4-1 .5-1.2 5-12.7 9.2-23.5 12.6-32.3l8.4-22c2.2-5.9 3.9-10.4 5-13.7s1.9-5.8 2.4-7.6a31.1 31.1 0 0 0 .9-3.9 19.5 19.5 0 0 0 .2-2.3 11.7 11.7 0 0 0-3.4-9.4 21.1 21.1 0 0 0-12.6-6.3 20.7 20.7 0 0 1-4.2-.8 8.8 8.8 0 0 1-3.5-1.7 4.2 4.2 0 0 1-1.6-3.5 5 5 0 0 1 1.2-2.9 3 3 0 0 1 2.4-1.5h64.5c.9 0 1.4.6 1.6 1.9s.2 2.1.2 2.6a6 6 0 0 1-.3 2 2.9 2.9 0 0 1-1.5 1.4 16.2 16.2 0 0 1-3.4 1.3 39.6 39.6 0 0 1-5.8 1.3 13.1 13.1 0 0 0-6.1 3.3 33.9 33.9 0 0 0-5 6.2 63.1 63.1 0 0 0-3.8 7.3c-1.2 2.6-2.2 5-3 7L488 376a15 15 0 0 1-3.7 5.3 27.5 27.5 0 0 1-5.3 3.6 24 24 0 0 1-5.8 2.1 26.7 26.7 0 0 1-5.1.6zm207.1-103.5a40.7 40.7 0 0 1-12.6 5.8 51.9 51.9 0 0 1-14.5 2.1c-13.2 0-23.2-2.9-30-8.9s-10.3-13.9-10.3-24.1a27.9 27.9 0 0 1 3.9-15 37.5 37.5 0 0 1 11.8-11.2 93.5 93.5 0 0 1 19.2-8.8c7.6-2.6 16.4-5.3 26.4-7.8a64 64 0 0 0 13-4.6c3.3-1.6 6.4-3.1 9.2-4.7s2.8-1.8 3.1-2.5a6 6 0 0 0 .4-2.2v-28.1a32.2 32.2 0 0 0-1.5-10 22.3 22.3 0 0 0-21.9-15.2 23 23 0 0 0-8.8 1.6 18.4 18.4 0 0 0-6.9 4.7 20.2 20.2 0 0 0-4.6 7.3 23.7 23.7 0 0 0-1.7 9.5v1.5l.3 2q.1 1 .3 1.8c.1.6.2.9.2 1a7.6 7.6 0 0 1-2.7 1.3l-6.1 2.2-8.1 2.4-8.3 2.4-6.9 2a28.4 28.4 0 0 1-4.2 1 2.1 2.1 0 0 1-2.2-1.8 24.6 24.6 0 0 1-.4-3.7 33.3 33.3 0 0 1 5.7-18.2 57.9 57.9 0 0 1 15.1-15.8 81.3 81.3 0 0 1 21.8-11.1 78.2 78.2 0 0 1 25.4-4.2 67.6 67.6 0 0 1 20.9 3 49.7 49.7 0 0 1 15.7 8.2 35.5 35.5 0 0 1 9.8 12.2 31.7 31.7 0 0 1 3.4 14.6V250a11.1 11.1 0 0 0 11.3 10.8 12.9 12.9 0 0 0 5.3-1 17.3 17.3 0 0 0 4.2-2.5l3.2-2.4a3.5 3.5 0 0 1 2.2-1c.9 0 1.4.3 1.5 1a12.8 12.8 0 0 1 .1 1.9 20.8 20.8 0 0 1-.7 5.5 7.3 7.3 0 0 1-2.5 4.2l-14.1 10.7c-4.1 3.2-7.8 5.9-11.1 8.2a60 60 0 0 1-9.1 5.2 18.7 18.7 0 0 1-7.6 1.8 9.4 9.4 0 0 1-5.7-1.8 18.4 18.4 0 0 1-4.4-4.4 33.9 33.9 0 0 1-3.2-5.6c-.8-2-1.5-3.8-2.1-5.6s-1.1-3.1-1.4-4.2-.6-1.5-.8-1.4zm-29.7-29a13 13 0 0 0 1.7 7.2 11.8 11.8 0 0 0 4.4 4.2 23.3 23.3 0 0 0 6.3 2 42 42 0 0 0 7.2.6 28.9 28.9 0 0 0 8.4-1.7 57.9 57.9 0 0 0 9.8-4.6 37.5 37.5 0 0 0 8.1-6.4c2.3-2.5 3.4-4.9 3.4-7.4v-26.7c0-1.2-.4-1.8-1.3-1.8l-.6.2-37.5 17.5a50.9 50.9 0 0 0-4.2 3 13.4 13.4 0 0 0-3.1 3.2 13.7 13.7 0 0 0-2 4.4 27.4 27.4 0 0 0-.6 6.3zm208.1 27.4a16.8 16.8 0 0 1-.3 2.7c-.3 1.2-.7 1.9-1.3 2.1h-84.5c-.6-.2-1.1-.9-1.3-2.1a16.8 16.8 0 0 1-.3-2.7 13.8 13.8 0 0 1 .5-2.6c.3-1.2.7-1.9 1.1-2.1a21.6 21.6 0 0 1 6-1.5 32.9 32.9 0 0 0 7.8-2.3 18 18 0 0 0 6.8-5.3c1.9-2.5 2.9-6.1 2.9-10.8V69.3a8.5 8.5 0 0 0-2.1-6.1 12.3 12.3 0 0 0-5.4-3.3 43.2 43.2 0 0 0-6.9-1.9 67.2 67.2 0 0 1-7.1-1.7q-2.1-.7-2.1-4.5a7.3 7.3 0 0 1 .4-2.2 4.7 4.7 0 0 1 2-2.2l53.5-25.2 1.5-.7a4.8 4.8 0 0 1 1.8-.3 1.5 1.5 0 0 1 1.6.9 10.5 10.5 0 0 1 .3 3v232.8c0 4.7 1 8.3 2.9 10.8a18 18 0 0 0 6.8 5.3 32.9 32.9 0 0 0 7.8 2.3 21.6 21.6 0 0 1 6 1.5c.4.2.8.9 1.1 2.1a13.8 13.8 0 0 1 .5 2.6zm101.8-3.6a2.6 2.6 0 0 1 .1-.7q.2-.6 1.2-.6l3-.3 4.4-.6 4.2-.8 2.8-.5c6.1-1.4 10.4-3.7 12.8-6.9a19.4 19.4 0 0 0 3.7-11.9V92.2c0-5.4-1.2-9.6-3.4-12.7a23 23 0 0 0-7.9-7.1 27.3 27.3 0 0 0-8.6-2.9 47.3 47.3 0 0 0-5.5-.6H956c-.5 0-.9-.1-1-.4a1.9 1.9 0 0 1-.3-.9v-7.1a2.5 2.5 0 0 1 .2-.7c.1-.3.5-.5 1.1-.6h3.1l5.2-.2 9.5-.3 19-.4 20.5-.7 20.5-.5 19-.3h16.3a83 83 0 0 1 26 4.4 78.6 78.6 0 0 1 24.1 12.8 68.9 68.9 0 0 1 17.6 21.2q6.9 12.6 6.9 29.1a58.8 58.8 0 0 1-2.9 19 52.1 52.1 0 0 1-8 14.7 54.4 54.4 0 0 1-12.2 11.2 94.4 94.4 0 0 1-15.3 8.6l49.1 77.7a99.3 99.3 0 0 0 14.7 18.2 47 47 0 0 0 19.5 11.4c.9.2 1.4.5 1.6.9a4.4 4.4 0 0 1 .2 1.3c0 1.7-.4 2.7-1.3 3.3a8 8 0 0 1-4 .8 153 153 0 0 1-32.8-3.8 104 104 0 0 1-16.6-5.3 41 41 0 0 1-13.2-8.1 73.8 73.8 0 0 1-10.5-11.4q-5.4-7-10.8-15c-3.6-5.3-7.2-10.9-10.7-16.7l-10.2-16.9c-3.2-5.5-6.4-10.6-9.4-15.3s-5.8-8.8-8.3-12.2l-25.2-1.8h-1.3a2.2 2.2 0 0 0-1.6.4 2.2 2.2 0 0 0-.7.6 4.2 4.2 0 0 0-.1 1.3v68.9a21.8 21.8 0 0 0 1.1 7.6 12.5 12.5 0 0 0 3.8 5.6 20.2 20.2 0 0 0 7 3.8 56.1 56.1 0 0 0 10.4 2.3l2.8.5 4.1.7 4.3.7 3.5.3c.7 0 1 .2 1.1.5a1.3 1.3 0 0 1 .2.8v7.1a3.7 3.7 0 0 1-.2.9c-.2.3-.5.4-1.1.4h-114c-.6 0-.9-.7-1.1-2.2a31 31 0 0 1-.2-4.2zm78.6-110.1a6.2 6.2 0 0 0 .7 2.3 2.8 2.8 0 0 0 2.4 1.2l4.3.6a58.6 58.6 0 0 0 8.1.4c9.5 0 17.3-1.5 23.5-4.4a36.8 36.8 0 0 0 14.5-11.7 44.5 44.5 0 0 0 7.4-16.9 99.5 99.5 0 0 0 2-19.9 61.4 61.4 0 0 0-3.4-20.6 52.9 52.9 0 0 0-9.4-16.8 46.2 46.2 0 0 0-14.6-11.3 41.7 41.7 0 0 0-18.7-4.2h-6.1l-2.7.2-4.3.2-2.5.4a2 2 0 0 0-1.5 2.2v93.2zm163.1 53a110.4 110.4 0 0 1 5.3-34.8 80.6 80.6 0 0 1 15.4-27.6 69 69 0 0 1 24.5-18.1c9.7-4.4 20.6-6.5 32.9-6.5a59 59 0 0 1 9.9.7 55 55 0 0 1 8 2 37.6 37.6 0 0 1 6.8 2.9l6.4 3.6a34 34 0 0 1 8.5 7 72.7 72.7 0 0 1 9 11.6 85.6 85.6 0 0 1 7.1 14.2 40.6 40.6 0 0 1 2.9 14.4 15.6 15.6 0 0 1-.9 5q-.9 2.7-3 2.7h-95.4c-1.1 0-1.8.9-2.2 2.9a35.5 35.5 0 0 0-.6 7.1 73.4 73.4 0 0 0 4.1 25.3 60 60 0 0 0 11.1 18.8 47.2 47.2 0 0 0 16 11.6 46.4 46.4 0 0 0 19.1 4 44.9 44.9 0 0 0 12.2-1.7 62.9 62.9 0 0 0 11.1-4.5 84.6 84.6 0 0 0 10.1-6.1c3.1-2.3 6.1-4.5 8.9-6.8l1.3-.3c.3 0 .7.2 1.2.8a21.2 21.2 0 0 1 3 3 32.4 32.4 0 0 1 2.2 2.8 1.4 1.4 0 0 1 .5 1 1.7 1.7 0 0 1-.6 1.1 98.3 98.3 0 0 1-13.1 12.4 124.4 124.4 0 0 1-16.6 10.8 98.4 98.4 0 0 1-18.1 7.7 58.7 58.7 0 0 1-17.4 2.9c-11.1 0-21-2-29.6-6.1a65.8 65.8 0 0 1-21.9-15.9 69.1 69.1 0 0 1-13.5-22.4 72.7 72.7 0 0 1-4.6-25.5zm95-35.4c2.8 0 4.2-1.2 4.2-3.7a33.5 33.5 0 0 0-2.1-11.9 30.5 30.5 0 0 0-5.7-9.9 27.2 27.2 0 0 0-9-6.7 27.8 27.8 0 0 0-11.7-2.4 27.1 27.1 0 0 0-13.6 3.3 37.4 37.4 0 0 0-9.9 8 33.7 33.7 0 0 0-6 9.7 22.8 22.8 0 0 0-2.1 8.6 6.6 6.6 0 0 0 .9 3.9 2.5 2.5 0 0 0 2.1 1.1zm89.6 100a4 4 0 0 0-2.6.8 17.4 17.4 0 0 0-2.2 1.8 17.5 17.5 0 0 1-2 1.9 3.6 3.6 0 0 1-2.3.8h-5.8c-.2 0-.5-1.6-.9-4.7s-.9-6.9-1.4-11.2-.9-8.9-1.2-13.6-.5-8.6-.5-11.7.6-2.9 1.8-3.4a13.4 13.4 0 0 1 4-.7 5.2 5.2 0 0 1 2.5.8 16.4 16.4 0 0 1 2.6 2l2.2 2.5a23.8 23.8 0 0 1 1.4 2.3c1.9 4 3.7 7.6 5.5 10.9a41.3 41.3 0 0 0 6.3 8.2 25.5 25.5 0 0 0 8.5 5.3 33.3 33.3 0 0 0 11.6 1.8 16.9 16.9 0 0 0 8.4-1.8 11.8 11.8 0 0 0 5-4.6 18.5 18.5 0 0 0 2.4-6.7 48.1 48.1 0 0 0 .6-7.7 20.3 20.3 0 0 0-4.9-13.7 63.5 63.5 0 0 0-12.1-10.5c-4.8-3.2-10-6.5-15.7-9.8a93.5 93.5 0 0 1-15.6-11.7 57.2 57.2 0 0 1-12.1-15.7c-3.2-6.1-4.8-13.7-4.8-22.6a27.2 27.2 0 0 1 4.8-15.1 50.3 50.3 0 0 1 12.6-13.1 71.6 71.6 0 0 1 17.4-9 56.4 56.4 0 0 1 19.2-3.4 58.3 58.3 0 0 1 10.1.9c3.4.6 6.5 1.2 9.4 2s5.3 1.5 7.3 2.3a30.2 30.2 0 0 1 3.8 1.6 6.2 6.2 0 0 1 1.8 2.5 17.8 17.8 0 0 1 1 5.4c.2 2.5.3 5.8.3 10s.1 9.5.1 16.2a4.4 4.4 0 0 1-2 4 8 8 0 0 1-4 1.2 8.7 8.7 0 0 1-3.5-.7 3.2 3.2 0 0 1-2.1-2.1c-1.3-3.3-2.8-6.7-4.4-10.1a52.4 52.4 0 0 0-5.6-9.2 25.7 25.7 0 0 0-7.4-6.6 18.2 18.2 0 0 0-9.7-2.5 23.4 23.4 0 0 0-6.4.8 14 14 0 0 0-5.9 3.1 16.5 16.5 0 0 0-4.1 6.4 30.5 30.5 0 0 0-1.5 10.4q0 5.4 5.1 10.2a82.1 82.1 0 0 0 12.7 9.4l16.6 10.3a107.4 107.4 0 0 1 16.5 12.6 65.6 65.6 0 0 1 12.7 16.4c3.4 6.2 5.1 13.6 5.1 22a30.8 30.8 0 0 1-4.8 16.9 45.8 45.8 0 0 1-12.5 12.7 64.1 64.1 0 0 1-16.9 8 62 62 0 0 1-18.2 2.8 54.7 54.7 0 0 1-9-.8 73.4 73.4 0 0 1-8.3-1.9l-6.1-1.8a14.3 14.3 0 0 0-2.8-.8zm105.3-67.5c.1-15.6 2.5-28.8 7.2-39.5s10.8-19.4 18.6-26a70.4 70.4 0 0 1 27.1-14.2 115.3 115.3 0 0 1 32.4-4.4l8.5.2c3.3.2 6.7.5 10.2 1a72.6 72.6 0 0 1 10.3 2.2 43.3 43.3 0 0 1 9.3 3.9 23.1 23.1 0 0 1 6.6 6.2 15 15 0 0 1 2.5 8.8 11.2 11.2 0 0 1-1.5 6.2 10.5 10.5 0 0 1-4 3.8 17.6 17.6 0 0 1-6 1.8 55.8 55.8 0 0 1-7.3.5 17.9 17.9 0 0 1-7.7-1.5 28.3 28.3 0 0 1-5.7-3.8 44.1 44.1 0 0 1-4.9-4.8 37.8 37.8 0 0 0-4.9-4.9 30.2 30.2 0 0 0-6-3.7 20.9 20.9 0 0 0-8.3-1.5c-7.5 0-13.8 1.9-18.6 5.7a39.1 39.1 0 0 0-11.4 14.6 69.8 69.8 0 0 0-5.7 19.3 142.3 142.3 0 0 0-1.5 20.1 110.3 110.3 0 0 0 2.4 23.8 53.9 53.9 0 0 0 7.9 18.9 38 38 0 0 0 14 12.4c5.8 2.9 12.8 4.4 21 4.4a31.3 31.3 0 0 0 9-1.4 41.1 41.1 0 0 0 8.5-4 55.8 55.8 0 0 0 7.8-5.7 63.1 63.1 0 0 0 6.7-7 24.1 24.1 0 0 1 3.2-3.2c1-.9 2.6-1.3 4.7-1.3a11.2 11.2 0 0 1 6.8 2c1.8 1.3 2.8 2.8 2.8 4.3a6.7 6.7 0 0 1-.3 1.7 8.8 8.8 0 0 1-1.6 3 128.3 128.3 0 0 1-13.3 14.2 83.8 83.8 0 0 1-15.2 11 73.7 73.7 0 0 1-17.4 7 74.6 74.6 0 0 1-19.8 2.5 55.1 55.1 0 0 1-26-6.2 69.8 69.8 0 0 1-21-16.5 80 80 0 0 1-14.2-23.3 72.4 72.4 0 0 1-5.2-26.6zm167.6-57.7a18.4 18.4 0 0 0-8.2-4.2 9.2 9.2 0 0 0-2.5-.5 10.1 10.1 0 0 1-2.5-.3 3.7 3.7 0 0 1-1.9-.8 2.7 2.7 0 0 1-.7-2 5.6 5.6 0 0 1 .4-2.3 3.1 3.1 0 0 1 2.2-1.4l49.3-14.3 2.1-.5h2c1.1 0 1.6.9 1.6 2.7v109.1a19.8 19.8 0 0 0 2.5 10 23.8 23.8 0 0 0 6.6 7.5 28.6 28.6 0 0 0 9.2 4.7 34.7 34.7 0 0 0 10.7 1.6 25.7 25.7 0 0 0 8-1.3 38.3 38.3 0 0 0 8.1-3.3 43.2 43.2 0 0 0 7.3-4.7 26.3 26.3 0 0 0 5.5-5.6v-86.5a11.7 11.7 0 0 0-4.3-8 17.8 17.8 0 0 0-8.1-4.3 10.1 10.1 0 0 0-2.5-.4l-2.6-.3a5.1 5.1 0 0 1-1.8-.9c-.5-.3-.7-1-.7-2a5.1 5.1 0 0 1 .4-2.2c.2-.7 1-1.2 2.1-1.5l49.4-14.1 2-.5h2c1.1 0 1.7.5 1.7 1.4v111.6c.5 4.7 1.8 8.1 4 10.2s5.7 3 10.5 3l9.4-.6c.4 0 .7.7.8 2.2s.2 2.5.2 3.1-.2.9-.4 2.1a3.7 3.7 0 0 1-2.1 2.6l-49.1 20.2-1.7.6-1.4.4c-.8 0-1.2-.4-1.4-1.4a11.8 11.8 0 0 1-.2-2.6v-15.6a2.2 2.2 0 0 0-1.7-.6h-.6a.3.3 0 0 0-.3.3l-25.9 12.6-6.6 2.5-6.1 2.4a53.8 53.8 0 0 1-6.4 1.8 42.7 42.7 0 0 1-7.4.6 82.1 82.1 0 0 1-15-1.4 66.8 66.8 0 0 1-15.2-4.3 36.6 36.6 0 0 1-11.7-7.7 15.1 15.1 0 0 1-4.7-11.3v-97.8a12.5 12.5 0 0 0-4.3-8zm183.2 60.6a107.6 107.6 0 0 1 5.4-34.8 78.8 78.8 0 0 1 15.3-27.6 69 69 0 0 1 24.5-18.1c9.7-4.4 20.7-6.5 33-6.5a58.6 58.6 0 0 1 9.8.7 55 55 0 0 1 8 2 34.8 34.8 0 0 1 6.8 2.9c2.1 1.1 4.3 2.3 6.4 3.6a34 34 0 0 1 8.5 7 72.7 72.7 0 0 1 9 11.6 78.5 78.5 0 0 1 7.1 14.2 40.6 40.6 0 0 1 2.9 14.4 15.6 15.6 0 0 1-.9 5q-.9 2.7-3 2.7h-95.4c-1.1 0-1.8.9-2.2 2.9a35.5 35.5 0 0 0-.6 7.1 71 71 0 0 0 4.2 25.3 57.9 57.9 0 0 0 11 18.8 46.6 46.6 0 0 0 16.1 11.6 46.1 46.1 0 0 0 19.1 4 44.2 44.2 0 0 0 12.1-1.7 60 60 0 0 0 11.1-4.5 77.3 77.3 0 0 0 10.1-6.1c3.1-2.3 6.1-4.5 8.9-6.8l1.3-.3c.3 0 .7.2 1.3.8a28.1 28.1 0 0 1 2.9 3 32.4 32.4 0 0 1 2.2 2.8 1.1 1.1 0 0 1 .5 1 1.7 1.7 0 0 1-.6 1.1 92.5 92.5 0 0 1-13.1 12.4 124.4 124.4 0 0 1-16.6 10.8 100.5 100.5 0 0 1-18 7.7 59.8 59.8 0 0 1-17.5 2.9c-11.1 0-21-2-29.6-6.1a66.8 66.8 0 0 1-21.9-15.9 69.1 69.1 0 0 1-13.5-22.4 75 75 0 0 1-4.6-25.5zm95-35.4c2.8 0 4.2-1.2 4.2-3.7a35.8 35.8 0 0 0-2-11.9 32.7 32.7 0 0 0-5.8-9.9 26.2 26.2 0 0 0-9-6.7 27.8 27.8 0 0 0-11.7-2.4 27.1 27.1 0 0 0-13.6 3.3 36.9 36.9 0 0 0-9.8 8 34.1 34.1 0 0 0-6.1 9.7 22.4 22.4 0 0 0-2 8.6 6.7 6.7 0 0 0 .8 3.9 2.5 2.5 0 0 0 2.1 1.1z"/></svg>