<svg xmlns="http://www.w3.org/2000/svg" viewBox="0 0 6038.4 1142.3" width="6038.4" height="1142.3"><path fill="#dfebee" d="M128.4 639.6v-7.9C22.3 600.9 70.9 458.9 77.6 423.5c4.7-24.8-22.6-6-34.4 12.4s-85.6 214 85.1 262.1c.1-1.3.1-2.6.1-4zm550.7-59.8c1.6 12.8-13 23.1-29.7 25.1s-26.5 13.8-36.4 25.2-24.3 12.2-33.8 1.3c-21.3-24.2-7-66.5 25.3-79.8 38.3-15.8 71.2.2 74.6 28.2zm-226.2 133c-9.2 18.1-29.9 10.1-55.9 11.1s-45.2 9.2-56.5-14.5c-14-29 26.2-61.5 60.8-57.4 41.2 4.8 64.4 35.7 51.6 60.8z"/><path fill="none" d="M522.5 442.5s-9.6 0-14.4 8.5a2.1 2.1 0 0 1-3.5 0c-4.8-8.4-15-8.3-15-8.3-19.9 0-26.1 23.8-12.7 36.7l19.8 17a14.3 14.3 0 0 0 19.6 0l18-15.7c13.4-12.8 8.1-38.2-11.8-38.2zm-82.3-61.9h-.3a21.3 21.3 0 0 0 0 42.6h.3a21.3 21.3 0 0 0 0-42.6z"/><path fill="#81b1ba" d="M571.7 380.6h-.3a21.3 21.3 0 0 0 0 42.6h.3a21.3 21.3 0 0 0 0-42.6zm-85.1 21.7v-.4a54.4 54.4 0 0 0-52.7-54.4c-20.6 37.4-28.2 71.1-34 97.7a54.3 54.3 0 0 0 32.3 11.1h.7a68.3 68.3 0 0 0 7.8-.6 66.3 66.3 0 0 1 45.9-53.4zm-46.4 20.9h-.3a21.3 21.3 0 0 1 0-42.6h.3a21.3 21.3 0 0 1 0 42.6z"/><path fill="#dfebee" d="M506.1 399.4h-.8a68.3 68.3 0 0 0-18.7 2.9 66.3 66.3 0 0 0-45.9 53.4 64 64 0 0 0-.8 9.9 66.2 66.2 0 0 0 65.4 66.2h.8a66.2 66.2 0 0 0 0-132.4zm28.2 81.3l-18 15.7a14.3 14.3 0 0 1-19.6 0l-19.8-17c-13.4-12.9-7.2-36.7 12.7-36.7 0 0 10.2-.1 15 8.3a2.1 2.1 0 0 0 3.5 0c4.8-8.5 14.4-8.5 14.4-8.5 19.9 0 25.2 25.4 11.8 38.2zM338.5 318v161.1c9.2 19 20 29.4 33.3 24 17.6-7.1 21.7-28 28.1-57.9 5.8-26.6 13.4-60.3 34-97.7 2.3-4.2 4.7-8.4 7.4-12.7 28.8-46.6-54.2-45.9-102.8-16.8zm231.1 15.5c-41.8-65.2 151.7-34.4 134.3 37-15.7 64.2-33.4 138.2-64.8 125.7-35-13.7-16.7-80.1-69.5-162.7z"/><path fill="#770547" d="M534 480.7l-18 15.7a14.3 14.3 0 0 1-19.6 0l-19.8-17c-13.4-12.9-7.2-36.7 12.7-36.7 0 0 10.2-.1 15.1 8.3a2 2 0 0 0 3.4 0c4.8-8.5 14.4-8.5 14.4-8.5 19.9 0 25.2 25.4 11.8 38.2z"/><path fill="#81b1ba" d="M650.7 638.9a17.8 17.8 0 0 0-7.6 1.5l-5.7 2.9c-3.6 3-7.8 7.8-12.7 14.5L608 680.7c-6.2 8.5-13.1 17.3-20.6 26.5a226.4 226.4 0 0 1-24.6 25.3 125 125 0 0 1-28.7 18.9 75.1 75.1 0 0 1-32.7 7.3H329.5a25 25 0 0 1-17.6-7.3c-5.3-4.9-8.2-10.2-8.9-15.7V220.5c0-14.7 1.1-25.1 3.2-31.1s7-10.4 14.5-13.1c9.8-3.6 22.6-6.8 38.3-9.8a281.2 281.2 0 0 1 51.1-4.4h21.1c1.6 0 2.7-.5 3.2-1.5a5.6 5.6 0 0 0 .7-2.4v-26.5a5.6 5.6 0 0 0-.7-2.5c-.5-1-1.6-1.5-3.2-1.5H54.6c-1.7 0-2.7.5-3.2 1.5a5.9 5.9 0 0 0-.8 2.5v26.5a10.1 10.1 0 0 0 .8 2.2c.5 1.1 1.5 1.7 3.2 1.7h10.8a178.4 178.4 0 0 1 26.2 2.5 134.9 134.9 0 0 1 32.4 9 85.8 85.8 0 0 1 27.5 18c7.7 7.5 11.6 17.1 11.6 28.9v490.1c0 1.2-.1 2.3-.1 3.5s-.1 1.6-.1 2.4-.4 4.1-.7 6.2a69.5 69.5 0 0 1-7.5 22.5 60.9 60.9 0 0 1-18.5 20.8 69.9 69.9 0 0 1-7 4.5 78.5 78.5 0 0 1-19.2 7.4c-7.5 2-14.8 3.5-21.8 4.7s-13.3 1.9-18.7 2.4l-9.5.8H48.2c-2 0-3.1.4-3.5 1.4a9.2 9.2 0 0 0-.5 2.5v26.5a5.9 5.9 0 0 0 .8 2.5c.5.9 1.5 1.4 3.2 1.4h517.6a8 8 0 0 0 5.8-2.4 24.3 24.3 0 0 0 4.5-6.4l81.5-160.1a12.9 12.9 0 0 0 1.5-5.9c0-4.2-2.8-6.4-8.4-6.4zm67.4-48a202.1 202.1 0 0 1 20.3-88.3 253.2 253.2 0 0 1 54.7-74.5 266.9 266.9 0 0 1 79.9-51.5 246.7 246.7 0 0 1 96.1-19.1 279.4 279.4 0 0 1 100.5 18.2q47.6 18.2 83.6 49.7a238.8 238.8 0 0 1 57.1 74.5c14 28.6 21.1 59.6 21.1 92.9s-6.5 65.6-19.4 94.9a232.1 232.1 0 0 1-53.7 76.2q-34.3 32.4-81.6 50.8c-31.6 12.2-65.9 18.4-103.2 18.4s-71-6.3-102.2-18.9-58.2-29.8-80.9-51.5a232.8 232.8 0 0 1-53.2-76.7c-12.8-29.4-19.1-61.1-19.1-95.1zM843.6 560a400 400 0 0 0 3.9 54.7 369.3 369.3 0 0 0 11.8 54.9 288.2 288.2 0 0 0 19.8 50.2 180.3 180.3 0 0 0 28.7 41.4 126.3 126.3 0 0 0 37.7 28.2c14.1 6.9 30 10.3 47.6 10.3q28.9 0 49.8-14.9t34.3-39a188.8 188.8 0 0 0 19.8-53.9 283.5 283.5 0 0 0 6.4-59.8 317.2 317.2 0 0 0-4.4-50.8 355.8 355.8 0 0 0-13.2-52.9 335.6 335.6 0 0 0-21.6-50.3 203 203 0 0 0-29.7-42.4 135.4 135.4 0 0 0-37.7-29.1 97.1 97.1 0 0 0-45.4-10.8q-27.4 0-47.8 14.9a121.7 121.7 0 0 0-33.6 38.7 200.5 200.5 0 0 0-19.8 53 259.8 259.8 0 0 0-6.6 57.6zm576.8 563.8a49.7 49.7 0 0 1-17.1-3 52.1 52.1 0 0 1-15.2-8.3 45.2 45.2 0 0 1-11.1-12.5 31.9 31.9 0 0 1-4.1-15.9c0-9.2 2.3-16.2 7.1-21.1a59.2 59.2 0 0 1 17.4-12.3 146.5 146.5 0 0 1 21.6-8.3 63 63 0 0 0 19.1-9.3c3.6-2.7 7.4-5.7 11.5-9.1s7.7-8.9 11-16.4l64.2-149.5-187.7-391.7a118.3 118.3 0 0 0-24-39.5 88.6 88.6 0 0 0-38.3-24.3l-8.3-2.2a54.1 54.1 0 0 1-9.6-3.2 24 24 0 0 1-7.8-5.1 11.7 11.7 0 0 1-3.2-8.6 19.4 19.4 0 0 1 2.9-9.8 9.8 9.8 0 0 1 8.9-4.9h258.8c2 0 3.1 2 3.4 5.9s.5 6.4.5 7.3c0 4.6-1.9 7.8-5.6 9.6a45.9 45.9 0 0 1-14 3.7c-5.5.6-11.5 1.1-17.9 1.5a61.1 61.1 0 0 0-17.9 3.4 31.7 31.7 0 0 0-13.9 9.3c-3.8 4.2-5.7 10.6-5.7 19.1 0 1 .8 3 2.2 6.1s2.2 5 2.2 5.7l121.6 260.3a73.5 73.5 0 0 0 3.7 7.1c1.8 3.1 3.8 4.7 6.1 4.7s2.6-.8 3.9-2.2a21.5 21.5 0 0 0 3.5-5.2c.9-2 1.8-3.8 2.4-5.6s1.2-3.1 1.5-3.7c15-38.6 27.7-71.2 38-98.1s18.8-49 25.5-66.6 11.7-31.5 15.2-41.5 5.9-17.6 7.3-23a90.1 90.1 0 0 0 2.7-11.8 57.8 57.8 0 0 0 .5-7.1c.7-11.4-2.8-20.9-10.3-28.4a69.9 69.9 0 0 0-26.9-16.7 63.9 63.9 0 0 0-11.1-2.2 86.4 86.4 0 0 1-12.7-2.4 32.2 32.2 0 0 1-10.8-5.4c-3.1-2.5-4.6-6-4.6-10.6 0-2.6 1.1-5.4 3.4-8.5s4.7-4.7 7.3-4.7h195.6c2.6 0 4.2 1.9 4.7 5.6a68.4 68.4 0 0 1 .7 8.1 14.9 14.9 0 0 1-1 5.9c-.6 1.7-2.2 3.1-4.6 4.4a67.5 67.5 0 0 1-10.3 4 170.9 170.9 0 0 1-17.4 3.9 36.2 36.2 0 0 0-18.7 10 102.2 102.2 0 0 0-14.9 18.6 189.2 189.2 0 0 0-11.8 22.3c-3.4 7.9-6.4 14.9-9 21.1l-248.6 615.8a44 44 0 0 1-11.3 15.9 72.9 72.9 0 0 1-16.1 11 74.1 74.1 0 0 1-17.7 6.4 72.2 72.2 0 0 1-15.2 2zM2048 810c-10.8 7.5-23.5 13.4-38.2 17.7a159.9 159.9 0 0 1-44.1 6.3q-59.9 0-91-26.9c-20.7-18-31.1-42.3-31.1-73.1q0-26.4 12-45.6c8-12.7 19.9-24 35.5-33.8s35.1-18.7 58.1-26.7 49.8-15.9 80.2-23.8c16.3-4.2 29.5-8.8 39.4-13.7s19.3-9.6 27.8-14.2c5.5-3 8.7-5.6 9.5-7.9a18.9 18.9 0 0 0 1.2-6.3v-85.4a94.9 94.9 0 0 0-4.6-30.1 68.2 68.2 0 0 0-14-24.3 66.1 66.1 0 0 0-22.6-16.1c-8.8-4-18.8-5.9-29.8-5.9a69.8 69.8 0 0 0-26.5 4.9 57.9 57.9 0 0 0-21.1 14.2 70.6 70.6 0 0 0-14 22.1 77.2 77.2 0 0 0-5.1 28.9c0 1 .1 2.4.2 4.4s.4 4 .8 6.1.6 4 .9 5.7a14.7 14.7 0 0 1 .5 2.9q-.4 1.1-8.1 3.9t-18.6 6.6c-7.3 2.5-15.4 4.9-24.3 7.4l-25.2 7.1-21.1 6.1a98.3 98.3 0 0 1-12.5 3.2c-3.6 0-5.8-1.9-6.6-5.6a53.6 53.6 0 0 1-1.2-11q0-28.5 17.1-55.4c11.5-18 26.7-33.9 45.9-47.8s41.1-25.1 65.9-33.6a236 236 0 0 1 77-12.8c23.5 0 44.6 3.1 63.2 9.1s34.5 14.4 47.6 25a111.2 111.2 0 0 1 29.9 36.8 99.4 99.4 0 0 1 10.3 44.3v233.9c0 8.5 3.1 16.1 9.5 22.8s14.6 10 24.8 10a37 37 0 0 0 15.9-3.2 68.8 68.8 0 0 0 12.8-7.3l9.5-7.4c2.6-2.1 4.9-3.2 6.9-3.2s4.1 1.1 4.4 3.2a41.3 41.3 0 0 1 .5 5.7 71.3 71.3 0 0 1-2.2 16.9c-1.5 5.7-4 9.9-7.6 12.5-16 12.1-30.3 22.9-42.7 32.6s-23.7 17.9-33.8 24.7a173.1 173.1 0 0 1-27.5 15.7c-8.1 3.6-15.8 5.4-23 5.4a29.4 29.4 0 0 1-17.4-5.4 55.2 55.2 0 0 1-13.2-13.2 87.8 87.8 0 0 1-9.6-16.9c-2.6-6.1-4.8-11.7-6.6-16.9s-3.2-9.5-4.2-12.8-1.8-4.7-2.4-4.4zm-90.2-87.7c0 8.8 1.7 16 5.2 21.5a35 35 0 0 0 13.4 12.8 61.7 61.7 0 0 0 18.9 6.1 129.2 129.2 0 0 0 21.8 1.7q10.4 0 25.5-5.1a165.1 165.1 0 0 0 29.7-13.7 111.5 111.5 0 0 0 24.7-19.7c6.9-7.3 10.3-14.7 10.3-22.3v-80.9q0-5.4-3.9-5.4a4.5 4.5 0 0 0-1.9.5l-113.8 53-12.5 9.1a40.2 40.2 0 0 0-9.5 9.8 38 38 0 0 0-5.9 13.2 79.7 79.7 0 0 0-2 19.4zm630.6 82.8a53.7 53.7 0 0 1-.9 8.3c-.7 3.6-2 5.8-4 6.4h-255.9c-1.9-.6-3.2-2.8-3.9-6.4a45.3 45.3 0 0 1-1-8.3 33.5 33.5 0 0 1 1.5-7.8c1-3.6 2.1-5.7 3.4-6.4 4.3-2 10.3-3.5 18.2-4.7a90.7 90.7 0 0 0 23.5-6.8 54.8 54.8 0 0 0 20.6-16.2c5.9-7.4 8.8-18.2 8.8-32.6V159c0-7.9-2.1-14-6.4-18.4a39.4 39.4 0 0 0-16.1-10 158.2 158.2 0 0 0-21.1-5.7q-11.2-2.2-21.6-5.1c-4.2-1.7-6.4-6.2-6.4-13.8a21.2 21.2 0 0 1 1.5-6.6 11.8 11.8 0 0 1 5.9-6.6l162.3-76.5c1.3-.6 2.7-1.3 4.4-1.9a13.3 13.3 0 0 1 5.4-1c2.6 0 4.2.9 4.9 2.7a30.7 30.7 0 0 1 1 9v705.5c0 14.4 2.9 25.2 8.8 32.6a53.3 53.3 0 0 0 20.6 16.2 89.6 89.6 0 0 0 23.5 6.8c7.8 1.2 13.9 2.7 18.1 4.7 1.3.7 2.5 2.8 3.5 6.4a37.8 37.8 0 0 1 1.4 7.8zm308.5-10.8a8 8 0 0 1 .5-2.2c.3-1.1 1.4-1.7 3.4-1.7a62.6 62.6 0 0 0 9.3-1l13.2-1.9c4.6-.7 8.9-1.4 12.8-2.2l8.3-1.8c18.6-4.2 31.6-11.2 39-20.8s11-21.6 11-36V228.6c0-16.3-3.4-29.3-10.3-38.7s-14.8-16.6-23.8-21.4a80.3 80.3 0 0 0-25.9-8.8 166.2 166.2 0 0 0-16.9-1.7h-18.7c-1.6 0-2.7-.5-3.2-1.5a5.3 5.3 0 0 1-.7-2.4v-21.6a6.3 6.3 0 0 1 .5-2.2c.3-.8 1.5-1.4 3.4-1.7h2.2l7.1-.3 15.7-.5 28.9-.7c18-.3 37.2-.8 57.7-1.5l62-1.9c20.9-.7 41.6-1.2 62-1.7s39.6-.8 57.6-.8h49.5c25.8 0 52.1 4.5 78.9 13.3a235.4 235.4 0 0 1 72.8 38.9 205.8 205.8 0 0 1 53.5 64c13.8 25.5 20.8 54.9 20.8 88.3 0 21.5-3 40.7-8.8 57.6a151.1 151.1 0 0 1-24.3 44.6 168.5 168.5 0 0 1-36.8 34 283.9 283.9 0 0 1-46.3 26l148.6 235.3a293.9 293.9 0 0 0 44.6 55.2 140.3 140.3 0 0 0 59.3 34.6c2.6.6 4.1 1.5 4.6 2.6a10.8 10.8 0 0 1 .8 4.2c0 4.9-1.3 8.2-4 9.8s-6.7 2.5-12.2 2.5a462.7 462.7 0 0 1-46.8-2.7 442.3 442.3 0 0 1-52.7-8.8 317.7 317.7 0 0 1-50.3-16q-23.7-9.7-39.9-24.5t-31.9-34.8c-10.8-14-21.7-29.2-32.6-45.3s-21.7-33-32.3-50.5-21-34.6-30.9-51.3-19.6-32.2-28.7-46.5-17.5-26.7-25-36.8l-76.5-5.4h-3.9c-2.3 0-3.9.3-4.9 1a6.1 6.1 0 0 0-2 1.9 11.3 11.3 0 0 0-.5 4v208.8a70.1 70.1 0 0 0 3.5 23.1 39.3 39.3 0 0 0 11.5 16.9c5.4 4.7 12.4 8.5 21.1 11.5a167.5 167.5 0 0 0 31.6 6.8l8.6 1.5 12.2 2.2c4.4.8 8.8 1.6 13 2.2a68.5 68.5 0 0 0 10.8 1c2 0 3.1.5 3.4 1.5a6.4 6.4 0 0 1 .5 2.4v21.6a4.9 4.9 0 0 1-.7 2.4c-.5 1-1.6 1.5-3.2 1.5h-345.6c-1.6 0-2.7-2.3-3.2-6.8a118.7 118.7 0 0 1-.7-12.8zm238.2-333.8a20.3 20.3 0 0 0 2.2 7.1c1.2 2.1 3.5 3.3 7.1 3.7l13.3 1.7a191.2 191.2 0 0 0 24.5 1.2q43.1 0 71.1-13.2c18.6-8.9 33.3-20.7 44.1-35.6s18.2-31.9 22.3-51.2a289.5 289.5 0 0 0 6.1-60.3 186.8 186.8 0 0 0-10.3-62.3q-10.2-29.4-28.7-50.9a136.4 136.4 0 0 0-44.1-34.4q-25.6-12.7-56.6-12.7l-10.8.2-7.6.5-8.3.5-13 .8a31.6 31.6 0 0 0-7.6 1.2c-3.1.8-4.7 3-4.7 6.6v282.4zm494.3 160.8q0-57.4 16.2-105.7c10.7-32.2 26.3-60 46.5-83.6a210.9 210.9 0 0 1 74.3-54.9c29.3-13 62.5-19.6 99.8-19.6a192.1 192.1 0 0 1 29.9 2.2 168.2 168.2 0 0 1 24.2 5.9 132.9 132.9 0 0 1 20.6 8.8c6.4 3.5 12.9 7.2 19.4 11.1s16.1 10.9 25.7 21.1a222.6 222.6 0 0 1 27.2 35.2 253.4 253.4 0 0 1 21.6 42.9c5.9 15.2 8.8 29.9 8.8 43.9a47.7 47.7 0 0 1-2.7 15q-2.7 8.1-9 8.1h-289.3c-3.2 0-5.5 2.9-6.6 8.8a119.7 119.7 0 0 0-1.7 21.6q0 43 12.5 76.7t33.6 56.8a139.9 139.9 0 0 0 48.5 35.3 143 143 0 0 0 57.9 12 131.2 131.2 0 0 0 36.7-5.1 184.3 184.3 0 0 0 33.9-13.5 225.3 225.3 0 0 0 30.3-18.6c9.5-6.9 18.5-13.7 27-20.6a15.1 15.1 0 0 1 3.9-1c1 0 2.3.8 4 2.5a108.2 108.2 0 0 1 8.8 9c2.9 3.5 5.2 6.3 6.8 8.6a4.3 4.3 0 0 1 1.5 3 5.4 5.4 0 0 1-1.9 3.4q-16.2 19-39.8 37.5a355.3 355.3 0 0 1-50.2 32.8 299.7 299.7 0 0 1-54.7 23.3q-27.9 8.8-52.9 8.9c-33.7 0-63.6-6.2-89.7-18.4s-48.2-28.4-66.2-48.3a207.5 207.5 0 0 1-40.9-67.9 220.2 220.2 0 0 1-14-77.2zm287.7-107.4c8.5 0 12.8-3.7 12.8-11.3a104.7 104.7 0 0 0-6.1-36 94.7 94.7 0 0 0-17.4-29.9 80.6 80.6 0 0 0-27.2-20.3 84.3 84.3 0 0 0-35.6-7.4c-15.7 0-29.4 3.4-41.2 10.1a113.4 113.4 0 0 0-29.9 24.2 108.7 108.7 0 0 0-18.4 29.4c-4 10.2-6.1 18.8-6.1 26 0 5.6.8 9.5 2.5 11.8a7.3 7.3 0 0 0 6.4 3.4zm271.7 303a13.1 13.1 0 0 0-7.8 2.4 49.5 49.5 0 0 0-6.7 5.7 76 76 0 0 1-6.1 5.6 10.6 10.6 0 0 1-6.8 2.5h-17.7c-.7 0-1.6-4.8-2.9-14.3s-2.7-20.8-4.2-34-2.7-27-3.7-41.2-1.4-26.1-1.4-35.6c0-5.2 1.8-8.5 5.6-10a32 32 0 0 1 12-2.2 15.5 15.5 0 0 1 7.6 2.4 38 38 0 0 1 7.8 6.2 59.8 59.8 0 0 1 6.7 7.6 57.8 57.8 0 0 1 4.4 6.8c5.5 12.1 11.1 23.1 16.6 32.9a109.6 109.6 0 0 0 19.2 25 73 73 0 0 0 25.4 15.9c9.9 3.8 21.6 5.6 35.4 5.6 10.4 0 18.9-1.8 25.4-5.4a38.6 38.6 0 0 0 15.2-14.2 53.5 53.5 0 0 0 7.2-20.1 161.4 161.4 0 0 0 1.7-23.5q0-24.4-14.7-41.4a185.8 185.8 0 0 0-36.6-31.6c-14.5-9.8-30.4-19.8-47.5-29.9a285 285 0 0 1-47.6-35.3 179.3 179.3 0 0 1-36.5-47.8q-14.7-27.7-14.7-68.4 0-23.6 14.7-45.9a154.9 154.9 0 0 1 38.2-39.4 204.5 204.5 0 0 1 52.7-27.5 175.9 175.9 0 0 1 58.1-10.3 177.8 177.8 0 0 1 30.7 2.7c10.3 1.8 19.7 3.9 28.4 6.1a229.2 229.2 0 0 1 22.1 6.9c6 2.3 9.9 3.9 11.5 4.9a17.4 17.4 0 0 1 5.6 7.6c1.5 3.5 2.5 8.9 3 16.4s.8 17.6.9 30.2.3 29 .3 49.3c0 5.5-2.1 9.5-6.1 12a23.7 23.7 0 0 1-12 3.6 29.6 29.6 0 0 1-10.6-1.9 10.5 10.5 0 0 1-6.6-6.4q-5.8-15.1-13.2-30.6a158.1 158.1 0 0 0-17-28 78.7 78.7 0 0 0-22.3-20.1 56.9 56.9 0 0 0-29.4-7.6 82.3 82.3 0 0 0-19.6 2.5 40.5 40.5 0 0 0-17.6 9.5c-5.3 4.8-9.4 11.2-12.5 19.4s-4.7 18.6-4.7 31.4c0 11.1 5.2 21.4 15.5 30.9s23.1 19 38.4 28.6 32.1 20.1 50.3 31.2a307.7 307.7 0 0 1 50.2 38.2 197.6 197.6 0 0 1 38.5 49.8q15.4 28.2 15.5 66.4c0 19-4.9 36-14.7 51.2a134.5 134.5 0 0 1-37.8 38.5 185.8 185.8 0 0 1-51.2 24.3 189.8 189.8 0 0 1-55.2 8.6 158.7 158.7 0 0 1-27.4-2.5 254.2 254.2 0 0 1-25-5.6c-7.6-2.2-13.8-4.1-18.7-5.7s-7.6-2.4-8.3-2.4zM4508 612.4q.5-70.9 21.6-119.8t56.3-78.7q35.4-29.8 82.1-43.1a357.3 357.3 0 0 1 98.3-13.3c7.2 0 15.8.3 25.8.8s20.2 1.4 30.9 2.9a238.5 238.5 0 0 1 31.3 6.6 118.2 118.2 0 0 1 28 12 65.7 65.7 0 0 1 20.1 18.7c5.1 7.3 7.6 16.2 7.6 26.7 0 7.8-1.5 14.1-4.4 18.9a31.7 31.7 0 0 1-12.3 11.2 55 55 0 0 1-18.1 5.7 154.1 154.1 0 0 1-22.1 1.4c-9.1 0-16.9-1.5-23.3-4.6a88.1 88.1 0 0 1-17.4-11.3 127.5 127.5 0 0 1-14.7-14.7 114.9 114.9 0 0 0-14.9-14.7 82.4 82.4 0 0 0-18.4-11.3c-6.9-3.1-15.2-4.6-25-4.6q-34.3 0-56.4 17.4a119.6 119.6 0 0 0-34.5 44.1 205.8 205.8 0 0 0-17.2 58.6 421.3 421.3 0 0 0-4.7 60.8q0 39.1 7.4 72.3c4.9 22 12.8 41.1 23.8 57.1a113.5 113.5 0 0 0 42.6 37.5q26.3 13.5 63.5 13.5a88.4 88.4 0 0 0 27.2-4.4 125.1 125.1 0 0 0 26-12.1 151.9 151.9 0 0 0 23.5-17.4 183.7 183.7 0 0 0 20.4-21 68.7 68.7 0 0 1 9.5-9.8c3.1-2.7 8-4 14.5-4a33.9 33.9 0 0 1 20.3 6.2c5.7 4.1 8.6 8.4 8.6 12.9a22.6 22.6 0 0 1-.7 5.2c-.5 2.1-2.2 5.2-5.2 9.1a366.1 366.1 0 0 1-40.2 43.1 244.4 244.4 0 0 1-46 33.3 227.3 227.3 0 0 1-112.8 29 168.7 168.7 0 0 1-78.7-18.9 216.2 216.2 0 0 1-63.7-50 240.7 240.7 0 0 1-42.9-70.6 215.8 215.8 0 0 1-15.7-80.7zm507.7-174.7a56.2 56.2 0 0 0-24.8-13 28.8 28.8 0 0 0-7.6-1.2 56 56 0 0 1-7.6-1 13.1 13.1 0 0 1-5.6-2.5c-1.5-1.1-2.2-3.2-2.2-6.1a18.5 18.5 0 0 1 1.2-6.9c.8-1.9 3.1-3.4 6.6-4.4l149.6-43.1a30.2 30.2 0 0 1 6.1-1.5 44.2 44.2 0 0 1 6.1-.5c3.3 0 4.9 2.8 4.9 8.4v330.9a60.9 60.9 0 0 0 7.6 30.1 73.9 73.9 0 0 0 19.9 22.8 88.6 88.6 0 0 0 27.9 14.2 107.4 107.4 0 0 0 32.4 4.9 83.8 83.8 0 0 0 24.5-3.9 141.5 141.5 0 0 0 24.5-10 139.1 139.1 0 0 0 22.1-14.3 82.5 82.5 0 0 0 16.6-16.9V461.5c-1-9.5-5.3-17.6-13-24.3a56.4 56.4 0 0 0-24.7-13 34.6 34.6 0 0 0-7.6-1.2 54 54 0 0 1-7.6-1 13.6 13.6 0 0 1-5.7-2.5c-1.4-1.1-2.2-3.2-2.2-6.1a15.9 15.9 0 0 1 1.3-6.8q1.2-3 6.6-4.5l149.5-42.6a32 32 0 0 1 6.1-1.5 45.6 45.6 0 0 1 6.2-.5c3.2 0 4.9 1.5 4.9 4.4v338.3c1.6 14.4 5.7 24.7 12.2 30.9s17.2 9.3 31.9 9.3l28.4-2c1.3 0 2.1 2.3 2.5 6.7s.5 7.6.5 9.5a60.7 60.7 0 0 1-1.3 6.4 10.8 10.8 0 0 1-6.1 7.8l-149 61.3c-.7.3-2.3.9-4.9 1.7l-4.4 1.3q-3.5 0-4.2-4.2a45.9 45.9 0 0 1-.7-8.1v-47.1c-1-1.3-2.7-1.9-4.9-1.9h-2c-.7 0-1 .3-1 1l-78.4 38.2c-7.2 2.6-13.9 5.1-20.1 7.6l-18.4 7.1a114.9 114.9 0 0 1-19.4 5.4 120.7 120.7 0 0 1-22.5 2 273.7 273.7 0 0 1-45.4-4.2 208.8 208.8 0 0 1-46.1-13.2c-14.2-6.1-26-13.9-35.5-23.3a46.7 46.7 0 0 1-14.2-34.3V461.9c-1-9.4-5.3-17.5-13-24.2zM5571 621.3q0-57.4 16.1-105.7t46.6-83.6a210 210 0 0 1 74.3-54.9c29.2-13 62.5-19.6 99.7-19.6a191.2 191.2 0 0 1 29.9 2.2 166.4 166.4 0 0 1 24.3 5.9 137.2 137.2 0 0 1 20.6 8.8c6.4 3.5 12.8 7.2 19.4 11.1s16.1 10.9 25.7 21.1a228.7 228.7 0 0 1 27.2 35.2 253.4 253.4 0 0 1 21.6 42.9c5.9 15.2 8.8 29.9 8.8 43.9a47.7 47.7 0 0 1-2.7 15c-1.8 5.4-4.8 8.1-9.1 8.1h-289.2c-3.3 0-5.5 2.9-6.6 8.8a111.2 111.2 0 0 0-1.7 21.6c0 28.7 4.1 54.3 12.5 76.7s19.5 41.3 33.6 56.8a139.9 139.9 0 0 0 48.5 35.3 142.9 142.9 0 0 0 57.8 12 131.9 131.9 0 0 0 36.8-5.1 183.4 183.4 0 0 0 33.8-13.5 226.4 226.4 0 0 0 30.4-18.6c9.5-6.9 18.5-13.7 27-20.6a14.2 14.2 0 0 1 3.9-1c1 0 2.3.8 3.9 2.5a83.8 83.8 0 0 1 8.8 9c3 3.5 5.3 6.3 6.9 8.6a4.3 4.3 0 0 1 1.5 3c0 .9-.7 2.1-2 3.4a272.1 272.1 0 0 1-39.7 37.5 361.1 361.1 0 0 1-50.2 32.8 302.7 302.7 0 0 1-54.7 23.3c-18.6 5.9-36.3 8.9-52.9 8.9-33.7 0-63.6-6.2-89.7-18.4s-48.3-28.4-66.2-48.3a207.8 207.8 0 0 1-41-67.9 222.4 222.4 0 0 1-13.9-77.2zm287.7-107.4c8.5 0 12.8-3.7 12.8-11.3a104.8 104.8 0 0 0-6.2-36 91.1 91.1 0 0 0-17.4-29.9 79.6 79.6 0 0 0-27.2-20.3 83.5 83.5 0 0 0-35.5-7.4c-15.7 0-29.4 3.4-41.2 10.1a111.8 111.8 0 0 0-29.9 24.2 106.3 106.3 0 0 0-18.4 29.4c-4.1 10.2-6.1 18.8-6.1 26 0 5.6.8 9.5 2.5 11.8a7.3 7.3 0 0 0 6.3 3.4z"/></svg>